<svg xmlns="http://www.w3.org/2000/svg" data-name="Layer 1" viewBox="0 0 32 40" x="0px" y="0px"><title>Dark Theme</title><path d="M18.23,31A15.07,15.07,0,0,1,16.16,1,1,1,0,0,1,17,2.73a13,13,0,0,0-2.85,15.16,13,13,0,0,0,7.44,6.69h0a13,13,0,0,0,6.15.62,1,1,0,0,1,.82,1.72A15,15,0,0,1,18.23,31ZM13.47,3.76A13.06,13.06,0,1,0,24.7,27.27a14.86,14.86,0,0,1-3.81-.81h0A15.07,15.07,0,0,1,11.71,7.23,14.94,14.94,0,0,1,13.47,3.76Z"/><text x="0" y="47" fill="#000000" font-size="5px" font-weight="bold" font-family="'Helvetica Neue', Helvetica, Arial-Unicode, Arial, Sans-serif">Created by Yoyon Pujiyono</text><text x="0" y="52" fill="#000000" font-size="5px" font-weight="bold" font-family="'Helvetica Neue', Helvetica, Arial-Unicode, Arial, Sans-serif">from the Noun Project</text></svg>