<svg xmlns="http://www.w3.org/2000/svg" data-name="Layer 1" viewBox="0 0 32 40" x="0px" y="0px"><title>Light Theme</title><circle cx="16" cy="16" r="7"/><path d="M16,8a1,1,0,0,0,1-1V2a1,1,0,0,0-2,0V7A1,1,0,0,0,16,8Z"/><path d="M8.93,10.34a1,1,0,1,0,1.41-1.41L6.81,5.39A1,1,0,0,0,5.39,6.81Z"/><path d="M8,16a1,1,0,0,0-1-1H2a1,1,0,0,0,0,2H7A1,1,0,0,0,8,16Z"/><path d="M8.93,21.66,5.39,25.19a1,1,0,1,0,1.41,1.41l3.54-3.54a1,1,0,0,0-1.41-1.41Z"/><path d="M16,24a1,1,0,0,0-1,1v5a1,1,0,0,0,2,0V25A1,1,0,0,0,16,24Z"/><path d="M23.07,21.66a1,1,0,0,0-1.41,1.41l3.54,3.54a1,1,0,0,0,1.41-1.41Z"/><path d="M30,15H25a1,1,0,0,0,0,2h5a1,1,0,0,0,0-2Z"/><path d="M22.36,10.64a1,1,0,0,0,.71-.29l3.54-3.54a1,1,0,0,0-1.41-1.41L21.66,8.93a1,1,0,0,0,.71,1.71Z"/><text x="0" y="47" fill="#000000" font-size="5px" font-weight="bold" font-family="'Helvetica Neue', Helvetica, Arial-Unicode, Arial, Sans-serif">Created by Yoyon Pujiyono</text><text x="0" y="52" fill="#000000" font-size="5px" font-weight="bold" font-family="'Helvetica Neue', Helvetica, Arial-Unicode, Arial, Sans-serif">from the Noun Project</text></svg>